<svg viewBox="0 0 65 69" xmlns="http://www.w3.org/2000/svg" fill-rule="evenodd" clip-rule="evenodd" stroke-linejoin="round" stroke-miterlimit="1.414"><path fill="none" d="M0 0h65v68.54H0z"/><clipPath id="a"><path d="M0 0h65v68.54H0z"/></clipPath><g clip-path="url(#a)"><g fill="#ff8573" fill-rule="nonzero"><path d="M1 59.846V8.948C1 4.565 5.165 1 10.284 1c5.119 0 9.284 3.565 9.284 7.948v50.898H1z"/><path d="M2 58.846h16.568V8.948C18.568 5.117 14.852 2 10.284 2 5.716 2 2 5.117 2 8.948v49.898m-2 2V8.948C0 4.006 4.604 0 10.284 0c5.68 0 10.284 4.006 10.284 8.948v51.898H0z"/></g><path fill="#ff8573" d="M10.284 0h47.563v56.561H10.284z"/><path fill="#fff" d="M12.435 2.05h43.453v49.771H12.435z"/><g fill-rule="nonzero"><path d="M56.847 67.54H6.909c-3.258 0-5.908-2.868-5.908-6.394 0-3.524 2.65-6.392 5.908-6.392h49.938V67.54z" fill="#fff"/><path d="M55.847 66.54V55.754H6.909c-2.706 0-4.908 2.419-4.908 5.392 0 2.974 2.202 5.394 4.908 5.394h48.938m2 2H6.909c-3.816 0-6.908-3.311-6.908-7.394s3.092-7.392 6.908-7.392h50.938V68.54z" fill="#ff8573"/></g><path fill="#ff8573" fill-rule="nonzero" d="M10.604 60.054h38.673v2H10.604zM19.337 8.905h29.941v2H19.337zM19.337 15.143h29.941v2H19.337zM19.337 21.381h29.941v2H19.337z"/><path d="M64 68.539V28.618" fill-rule="nonzero"/><path fill="#ff8573" fill-rule="nonzero" d="M63 28.618h2v39.921h-2z"/></g></svg>