<svg viewBox="0 0 58 69" xmlns="http://www.w3.org/2000/svg" fill-rule="evenodd" clip-rule="evenodd" stroke-linejoin="round" stroke-miterlimit="1.414"><path fill="none" d="M0 0h57.371v69H0z"/><clipPath id="a"><path d="M0 0h57.371v69H0z"/></clipPath><g clip-path="url(#a)"><path fill="#ff8573" d="M0 0h57.371v69H0z"/><path fill="#fff" d="M2.062 1.869h53.282v64.973H2.062z"/><g fill="#ff8573"><path d="M7.753 6.978h41.865v11.629H7.753z"/><path d="M8.753 7.978h39.865v9.629H8.753z"/></g><path fill="#ff8573" fill-rule="nonzero" d="M8.14 24.972h41.09v2H8.14z"/><g fill="#ff8573"><path d="M7.753 36.438h8.528v6.202H7.753z"/><path d="M8.753 37.438h6.528v4.202H8.753zM18.607 36.438h8.528v6.202h-8.528z"/><path d="M19.607 37.438h6.528v4.202h-6.528zM29.461 36.438h8.528v6.202h-8.528z"/><path d="M30.461 37.438h6.528v4.202h-6.528zM40.315 36.438h8.528v23.258h-8.528z"/><path d="M41.315 37.438h6.528v21.258h-6.528zM7.753 44.966h8.528v6.202H7.753z"/><path d="M8.753 45.966h6.528v4.202H8.753z"/><g><path d="M18.607 44.966h8.528v6.202h-8.528z"/><path d="M19.607 45.966h6.528v4.202h-6.528z"/></g><g><path d="M29.461 44.966h8.528v6.202h-8.528z"/><path d="M30.461 45.966h6.528v4.202h-6.528z"/></g><g><path d="M7.753 53.494h8.528v6.202H7.753z"/><path d="M8.753 54.494h6.528v4.202H8.753z"/></g><g><path d="M18.607 53.494h8.528v6.202h-8.528z"/><path d="M19.607 54.494h6.528v4.202h-6.528z"/></g><g><path d="M29.461 53.494h8.528v6.202h-8.528z"/><path d="M30.461 54.494h6.528v4.202h-6.528z"/></g></g></g></svg>