<svg viewBox="0 0 228 144" xmlns="http://www.w3.org/2000/svg" fill-rule="evenodd" clip-rule="evenodd" stroke-linejoin="round" stroke-miterlimit="2"><g transform="translate(-.162)"><path fill="none" d="M.162 0H228v143.208H.162z"/><clipPath id="a"><path d="M.162 0H228v143.208H.162z"/></clipPath><g clip-path="url(#a)"><path fill="none" d="M.162 0h227.92v143.209H.162z"/><g transform="translate(.162)"><path fill="#f2f2f2" d="M82.065 17.922h128.922v99.633H82.065z"/><path d="M210.987 17.922v99.633H82.065l128.922-99.633z" fill="#f8f8f8" fill-rule="nonzero"/><path d="M85.665 15.762h121.72c1.975 0 3.6 1.625 3.6 3.6v14.766H82.065V19.362c0-1.975 1.625-3.6 3.6-3.6z" fill="#ff8573" fill-rule="nonzero"/><path fill="#fff" d="M94.001 46.999h14v15h-14zM117.001 46.999h14v15h-14zM140.001 46.999h14v15h-14zM163.001 46.999h14v15h-14zM185.001 46.999h14v15h-14zM94.001 67h14v14h-14zM117.001 67h14v14h-14zM140.001 67h14v14h-14zM163.001 67h14v14h-14zM185.001 67h14v14h-14zM94.001 89h14v13h-14zM117.001 89h14v13h-14zM140.001 89h14v13h-14zM163.001 89h14v13h-14zM185.001 89h14v13h-14z"/><path fill="#515151" d="M82 34h129v4H82z"/><ellipse cx="103" cy="24.999" rx="4" ry="3" fill="#515151"/><circle cx="132" cy="24.999" r="3" fill="#515151"/><ellipse cx="161" cy="24.999" rx="4" ry="3" fill="#515151"/><ellipse cx="190.5" cy="24.999" rx="3.5" ry="3" fill="#515151"/><path d="M101.151 4.238h3.6v24.128s-.158.706-1.772.706-1.828-.706-1.828-.706V4.238z" fill="#f2f2f2" fill-rule="nonzero"/><path fill="#f2f2f2" d="M107 4h3v11h-3z"/><path d="M110 5h-9a5.263 5.263 0 011.318-3.535A4.259 4.259 0 01105.5 0a4.259 4.259 0 013.182 1.465A5.263 5.263 0 01110 5z" fill="#f2f2f2" fill-rule="nonzero"/><path d="M101.151 4.238h3.6v24.128s-.158.706-1.772.706-1.828-.706-1.828-.706V4.238z" fill="#f2f2f2" fill-rule="nonzero"/><path fill="#f2f2f2" d="M107 4h3v11h-3z"/><path d="M110 5h-9a5.263 5.263 0 011.318-3.535A4.259 4.259 0 01105.5 0a4.259 4.259 0 013.182 1.465A5.263 5.263 0 01110 5z" fill="#f2f2f2" fill-rule="nonzero"/><path d="M105.652 3.518c.494 0 .9.406.9.9s-.406.9-.9.9a.904.904 0 01-.9-.9c0-.494.406-.9.9-.9z" fill="#fff" fill-rule="nonzero"/><path d="M130.321 4.238h3.6v24.128s-.158.706-1.772.706-1.828-.706-1.828-.706V4.238z" fill="#f2f2f2" fill-rule="nonzero"/><path fill="#f2f2f2" d="M135 4h5v11h-5z"/><path d="M140 5h-9a5.263 5.263 0 011.318-3.535A4.259 4.259 0 01135.5 0a4.259 4.259 0 013.182 1.465A5.263 5.263 0 01140 5zM159.49 4.238h3.6v24.128s-.158.706-1.772.706-1.828-.706-1.828-.706V4.238z" fill="#f2f2f2" fill-rule="nonzero"/><path fill="#f2f2f2" d="M165 4h3v11h-3z"/><path d="M168 5h-9a5.263 5.263 0 011.318-3.535A4.259 4.259 0 01163.5 0a4.259 4.259 0 013.182 1.465A5.263 5.263 0 01168 5zM188.66 4.238h3.6v24.128s-.158.706-1.772.706-1.828-.706-1.828-.706V4.238z" fill="#f2f2f2" fill-rule="nonzero"/><path fill="#f2f2f2" d="M194 4h4v11h-4z"/><path d="M198 5h-9a5.263 5.263 0 011.318-3.535A4.259 4.259 0 01193.5 0a4.259 4.259 0 013.182 1.465A5.263 5.263 0 01198 5z" fill="#f2f2f2" fill-rule="nonzero"/><path d="M134.822 3.518c.494 0 .9.406.9.9s-.406.9-.9.9a.904.904 0 01-.9-.9c0-.494.406-.9.9-.9zM163.992 3.518c.494 0 .9.406.9.9s-.406.9-.9.9a.904.904 0 01-.9-.9c0-.494.406-.9.9-.9zM193.161 3.518c.494 0 .9.406.9.9s-.406.9-.9.9a.904.904 0 01-.9-.9c0-.494.406-.9.9-.9z" fill="#fff" fill-rule="nonzero"/><path d="M71.456 111.828H36.545l3.138 28.242h28.635l3.138-28.242z" fill="#f1eeee" fill-rule="nonzero"/><ellipse cx="54" cy="111.828" rx="17.455" ry="2.746" fill="#515151"/><ellipse cx="54" cy="139.874" rx="14.317" ry="3.334" fill="#f0f0f0"/><path d="M37.799 58.381s15.572 6.584 13.208 22.341a125.731 125.731 0 00-.079 32.837 1 1 0 001.984-.256 123.719 123.719 0 01.075-32.3c2.584-17.228-14.406-24.464-14.406-24.464a1.002 1.002 0 00-1.312.53 1.002 1.002 0 00.53 1.312zM81.728 64.839s-4.96-.895-10.259 2.007c-3.467 1.899-7.107 5.428-9.532 11.975-5.883 15.882-1.572 34.636-1.572 34.636a1 1 0 001.948-.45s-4.189-18.134 1.5-33.492c2.203-5.949 5.467-9.189 8.617-10.915 4.627-2.534 8.95-1.791 8.95-1.791a1.001 1.001 0 00.348-1.97z" fill="#ffccc4"/><path d="M41.984 55.264c-.636 1.492 6.917 3.46 4.927 7.262-1.989 3.803-6.749 6.183-8.776 4.954-2.028-1.229-4.461 2.208-9.534-9.872-5.073-12.079-23.916-10.051-27.299-9.161-3.384.891 1.43-2.651 5.777-3.021 4.346-.37 20.292 3.553 24.485 4.98 4.192 1.427 11.42.682 12.406 2.941.986 2.259-1.986 1.917-1.986 1.917z" fill="#ff8573" fill-rule="nonzero"/><path d="M60.781 38.697s-3.022 25.182-5.496 41.671a125.739 125.739 0 00-.079 32.838 1 1 0 001.984-.256 123.726 123.726 0 01.075-32.301c2.476-16.496 5.502-41.714 5.502-41.714a1 1 0 00-1.986-.238z" fill="#ffccc4"/><path d="M64.39 103.462a8.455 8.455 0 00-3.747-3.585c-2.456-1.04-10.314-4.399-13.311-7.846s-3.87-8.797-.986-11.126c2.884-2.329 5.161 2.122 5.946-1.7.785-3.822 9.515-8.573 14.217-1.625s4.008 11.906 3.502 13.051c-.251.564-1.792-3.591-4.664-4.778-2.825-1.166-6.147-.309-5.585.539 1.107 1.67 4.306 1.777 5.986 2.792 1.68 1.015 5.098 4.164 2.342 9.265a27.014 27.014 0 01-3.7 5.013z" fill="#ffafa3" fill-rule="nonzero"/><path d="M60.944 35.408c.514.787-3.597 2.672-2.079 4.638 1.518 1.966 4.471 2.847 5.504 1.942 1.033-.905 2.766.81 4.445-6.59 1.679-7.399 12.631-8.139 14.647-7.972 2.017.166-1.082-1.368-3.597-1.144-2.515.224-11.217 4.068-13.467 5.302s-6.447 1.541-6.781 2.928c-.334 1.388 1.328.896 1.328.896zM72.629 49.388a14.422 14.422 0 013.755-3.863 21.327 21.327 0 015.354-2.991 18.576 18.576 0 015.051-1.096 32.563 32.563 0 015.074.108c1.411.102 2.798.415 4.117.927a7.23 7.23 0 011.375.699A108.04 108.04 0 0087.205 48a5.645 5.645 0 00-2.134 1.918 2.15 2.15 0 00-.116 2.135c.119.291.36.514.659.612a7.682 7.682 0 001.541-1.229 47.333 47.333 0 016.233-4.827 14.132 14.132 0 013.648-1.671 6.195 6.195 0 011.718-.226 3.879 3.879 0 011.554.348 19.036 19.036 0 012.984 1.699c.623.434 1.199.932 1.719 1.486.418.414.75.908.976 1.453a4.499 4.499 0 00-1.658-.897 6.29 6.29 0 00-4.611.503 5.37 5.37 0 00-2.455 2.07 4.278 4.278 0 00-.543 1.941c-.01.175-.012.339-.016.485.02.236-.009.473-.085.698a.23.23 0 01-.035.047l-.039.042c.043-.033.084-.067.123-.104a27.683 27.683 0 012.176-1.733 13.156 13.156 0 013.549-1.899 10.528 10.528 0 012.032-.444 6.249 6.249 0 011.806.056 7.779 7.779 0 013.459 1.75 9.085 9.085 0 012.219 3.157c.261.558.458 1.144.586 1.746.115.403.093.834-.064 1.223a.546.546 0 01-.382.274c-.472.094-1.241-.265-2.284-1.067-1.563-1.201-2.807-1.722-3.698-1.545a1.657 1.657 0 00-1.12.855 5.327 5.327 0 00-.531 1.825l-.033.211c-.05.444 0 .893.147 1.315.104.441.388.82.783 1.043a.902.902 0 00.802-.076c.416-.26.771-.607 1.04-1.017a2.185 2.185 0 011.693-1.06c.858-.025 1.877.549 3.211 1.81a57.455 57.455 0 014.4 4.956c3.204 3.901 3.965 4.475 4.134 4.472l-.024.041a2.775 2.775 0 01-1.446.964c-.353.143-1.217.574-2.315 1.123-1.807.905-4.283 2.147-6.551 3.134-1.237.542-2.291.948-3.124 1.211a5.36 5.36 0 01-2.099.368 4.934 4.934 0 01-2.879-1.281c-.721-.531-1.807-1.335-3.757-2.549a7.826 7.826 0 01-1.998-1.704 4.502 4.502 0 01-.853-1.66 5.543 5.543 0 01.081-2.699c.114-.512.193-.875.003-1.005a3.332 3.332 0 00-.669.821 5.207 5.207 0 00-.157 4.155 7.449 7.449 0 001.997 3.289 14.519 14.519 0 003.801 1.99c1.179.472 2.109.845 2.272 1.311a.474.474 0 01-.054.409c-.3.52-1.479 1.151-3.72 2a38.07 38.07 0 01-10.141 2.565 19.53 19.53 0 01-3.815-.034 17.516 17.516 0 01-3.283-.686 7.516 7.516 0 01-3.281-2.606 13.582 13.582 0 01-1.457-2.304 13.814 13.814 0 01-1.037-2.758 26.727 26.727 0 01-.673-4.892c-.095-1.376-.164-2.37-.523-2.588a.382.382 0 00-.368.002 1.39 1.39 0 00-.58.649 6.572 6.572 0 00-.499 4.726 23.353 23.353 0 002.397 5.76c.894 1.592 1.691 2.708 1.697 2.723l-.008-.004a46.614 46.614 0 01-4.132-1.998 31.071 31.071 0 01-3.393-2.123 12.407 12.407 0 01-2.689-2.532c-1.607-1.477-2.123-3.591-1.534-6.283a15.738 15.738 0 011.038-3.045c.336-.738.709-1.459 1.117-2.16a9.635 9.635 0 012.086-2.099c.93-.688 1.744-1.52 2.411-2.465a1.912 1.912 0 00-.061-2.238 6.593 6.593 0 01-.933-1.725 3.39 3.39 0 01-.162-1.479 9.356 9.356 0 011.268-3.115l.083-.156zm23.013 28.743c.275-.476-.301-.997-1.173-1.785-.242-.219-.515-.466-.792-.733a29.19 29.19 0 01-1.572-1.69 8.693 8.693 0 00-2.08-1.961c-.225-.119-.376-.114-.451.016-.2.347.157 1.503.442 2.436.089.282.169.558.231.782a4.546 4.546 0 001.295 1.72 8.032 8.032 0 002.206 1.504c.439.249.966.289 1.438.11.184-.091.342-.228.456-.399z" fill="#ffccc4" fill-rule="nonzero"/><path d="M120.393 70.596a3.81 3.81 0 01-1.271.743c-.349.14-1.212.571-2.303 1.118l-.008.008c-1.807.905-4.28 2.144-6.551 3.133-1.244.536-2.29.948-3.122 1.212a5.352 5.352 0 01-2.098.368 4.924 4.924 0 01-2.879-1.281c-.72-.531-1.807-1.335-3.755-2.549a7.785 7.785 0 01-1.997-1.704 4.492 4.492 0 01-.857-1.661 5.53 5.53 0 01.082-2.699c.111-.507.192-.875-.001-1.007-.045.044-.095.087-.141.133a3.308 3.308 0 00-.529.688 5.202 5.202 0 00-.157 4.153 7.45 7.45 0 001.999 3.288 14.496 14.496 0 003.8 1.989c1.179.472 2.109.846 2.271 1.313a.473.473 0 01-.054.409 1.12 1.12 0 01-.179.226 11.512 11.512 0 01-3.541 1.773 38.031 38.031 0 01-10.141 2.565 19.521 19.521 0 01-3.814-.035 17.414 17.414 0 01-3.282-.688 7.516 7.516 0 01-3.28-2.607 13.545 13.545 0 01-1.456-2.305 13.81 13.81 0 01-1.04-2.759 26.67 26.67 0 01-.671-4.887c-.096-1.375-.165-2.37-.523-2.589a.385.385 0 00-.368.002.522.522 0 00-.213.146 2.401 2.401 0 00-.365.507 6.57 6.57 0 00-.499 4.725 23.337 23.337 0 002.395 5.764c.888 1.578 1.688 2.705 1.693 2.714l-.005-.006a45.898 45.898 0 01-4.132-1.999 30.973 30.973 0 01-3.394-2.121 12.355 12.355 0 01-2.686-2.529c-1.608-1.476-2.123-3.59-1.533-6.282a15.687 15.687 0 011.039-3.044c.336-.738.708-1.459 1.116-2.16.201-.326.443-.624.72-.889.393-.393.865-.789 1.365-1.208.5-.419 1.042-.871 1.491-1.32.355-.341.665-.726.921-1.146.145-.242.247-.507.302-.784a27.369 27.369 0 018.495-1.121 24.99 24.99 0 0111.78 3.302c9 5.128 22.22 9.385 27.488 10.979a1.432 1.432 0 01-.112.122zm-30.781 1.328a.198.198 0 00-.035.047c-.2.341.157 1.502.44 2.433.087.285.169.554.231.781a4.566 4.566 0 001.294 1.719 8.044 8.044 0 002.208 1.5c.439.249.967.29 1.438.11.123-.065.237-.147.338-.243a.787.787 0 00.118-.151c.274-.475-.302-.996-1.173-1.786l-.008-.007c-.239-.217-.51-.462-.784-.726-.584-.565-1.104-1.158-1.567-1.686a8.694 8.694 0 00-2.081-1.96c-.196-.104-.336-.113-.419-.031z" fill="#ff8573" fill-rule="nonzero"/></g></g></g></svg>