<svg viewBox="0 0 61 67" xmlns="http://www.w3.org/2000/svg" fill-rule="evenodd" clip-rule="evenodd" stroke-linejoin="round" stroke-miterlimit="1.414"><path fill="none" d="M0 0h60.376v66.6H0z"/><clipPath id="a"><path d="M0 0h60.376v66.6H0z"/></clipPath><g clip-path="url(#a)"><ellipse cx="46.482" cy="56.828" rx="13.894" ry="8.828" fill="#ff8573"/><ellipse cx="46.597" cy="56.685" rx="11.991" ry="6.828" fill="#fff"/><ellipse cx="46.482" cy="50.828" rx="13.894" ry="8.828" fill="#ff8573"/><ellipse cx="46.597" cy="50.685" rx="11.991" ry="6.828" fill="#fff"/><ellipse cx="46.482" cy="44.828" rx="13.894" ry="8.828" fill="#ff8573"/><ellipse cx="46.597" cy="44.685" rx="11.991" ry="6.828" fill="#fff"/><ellipse cx="13.482" cy="56.828" rx="13.894" ry="8.828" fill="#ff8573"/><ellipse cx="13.597" cy="56.685" rx="11.991" ry="6.828" fill="#fff"/><ellipse cx="13.482" cy="50.828" rx="13.894" ry="8.828" fill="#ff8573"/><ellipse cx="13.597" cy="50.685" rx="11.991" ry="6.828" fill="#fff"/><ellipse cx="13.482" cy="44.828" rx="13.894" ry="8.828" fill="#ff8573"/><ellipse cx="13.597" cy="44.685" rx="11.991" ry="6.828" fill="#fff"/><ellipse cx="46.482" cy="38.828" rx="13.894" ry="8.828" fill="#ff8573"/><ellipse cx="46.597" cy="38.685" rx="11.991" ry="6.828" fill="#fff"/><ellipse cx="46.482" cy="32.828" rx="13.894" ry="8.828" fill="#ff8573"/><ellipse cx="46.597" cy="32.685" rx="11.991" ry="6.828" fill="#fff"/><ellipse cx="46.482" cy="26.828" rx="13.894" ry="8.828" fill="#ff8573"/><ellipse cx="46.597" cy="26.685" rx="11.991" ry="6.828" fill="#fff"/><g><ellipse cx="46.482" cy="20.828" rx="13.894" ry="8.828" fill="#ff8573"/><ellipse cx="46.597" cy="20.685" rx="11.991" ry="6.828" fill="#fff"/></g><g><ellipse cx="46.482" cy="14.828" rx="13.894" ry="8.828" fill="#ff8573"/><ellipse cx="46.597" cy="14.685" rx="11.991" ry="6.828" fill="#fff"/></g><g><ellipse cx="46.482" cy="8.828" rx="13.894" ry="8.828" fill="#ff8573"/><ellipse cx="46.597" cy="8.685" rx="11.991" ry="6.828" fill="#fff"/></g><g fill="#ff8573"><path d="M0 23l11.918-6.9v13.8L0 23z" fill-rule="nonzero"/><path d="M7.151 21.217v3.575h16.43v-3.575H7.151z"/></g><g fill="#ff8573"><path d="M23.58 6.9l-11.918 6.9V0L23.58 6.9z" fill-rule="nonzero"/><path d="M16.429 8.683V5.108H-.001v3.575h16.43z"/></g><path fill="#ff8573" d="M32.588 8.607h1.588v48.221h-1.588zM-.112 43.907h1.588v14.752H-.112zM25.788 43.907h1.588v12.921h-1.588zM58.788 8.607h1.588v48.221h-1.588z"/></g></svg>