<svg viewBox="0 0 592 517" xmlns="http://www.w3.org/2000/svg" fill-rule="evenodd" clip-rule="evenodd" stroke-linejoin="round" stroke-miterlimit="1.414"><path fill="none" d="M0 0h592v516.11H0z"/><clipPath id="a"><path d="M0 0h592v516.11H0z"/></clipPath><g clip-path="url(#a)"><path d="M202.93 213.054L529.4 398.138 326.471 516.109 0 331.026l202.93-117.972z" fill="#fff" fill-rule="nonzero"/><path d="M204.35 175.193l326.47 185.084-202.929 117.971L1.42 293.165l202.93-117.972zM429.501 232.323l162.5 92.1-48.056 27.939-162.5-92.102 48.056-27.937z" fill="#f6f6f6" fill-rule="nonzero"/><g fill-rule="nonzero"><path d="M199.835 73.601a25.038 25.038 0 004.428 8.256 36.997 36.997 0 007.513 7.565 32.277 32.277 0 007.916 4.253 56.518 56.518 0 008.534 2.251 24.68 24.68 0 007.32.425 12.533 12.533 0 002.645-.511 187.559 187.559 0 01-14.652-12.936 9.807 9.807 0 01-2.65-4.228 3.744 3.744 0 01.818-3.613 1.862 1.862 0 011.392-.714c.78.841 1.449 1.78 1.988 2.793a82.348 82.348 0 008.105 11.054 24.504 24.504 0 005.306 4.545c.86.527 1.791.93 2.763 1.198a6.77 6.77 0 002.761.164 33.23 33.23 0 005.801-1.41c1.25-.425 2.453-.98 3.587-1.656a7.691 7.691 0 002.33-1.965 7.82 7.82 0 01-3.198.693 10.937 10.937 0 01-7.469-3.041 9.328 9.328 0 01-3.114-4.636 7.44 7.44 0 01.032-3.507c.067-.298.141-.574.208-.819.146-.385.211-.797.192-1.208a.423.423 0 00-.035-.094 1.127 1.127 0 01-.046-.092c.058.074.112.151.161.232a48.326 48.326 0 002.807 3.939 22.944 22.944 0 005.003 4.888 18.431 18.431 0 003.186 1.719c.972.403 1.998.663 3.045.772a13.517 13.517 0 006.629-1.272 15.827 15.827 0 005.226-4.217 14.048 14.048 0 001.817-2.639 3.27 3.27 0 00.479-2.077.952.952 0 00-.509-.642c-.745-.384-2.202-.152-4.328.688-3.191 1.26-5.518 1.532-6.922.81a2.872 2.872 0 01-1.463-1.973 9.24 9.24 0 01-.014-3.304c.017-.137.037-.266.046-.374a5.159 5.159 0 01.875-2.127 2.829 2.829 0 011.805-1.368c.49-.044.973.146 1.303.512.572.634 1 1.385 1.253 2.2a3.79 3.79 0 002.321 2.583c1.422.455 3.403-.018 6.234-1.486a99.77 99.77 0 009.73-6.177c7.223-4.97 8.77-5.565 9.045-5.477l-.02-.081a4.837 4.837 0 00-1.956-2.306c-.518-.401-1.759-1.543-3.328-2.984-2.582-2.383-6.122-5.643-9.444-8.382-1.816-1.498-3.374-2.683-4.637-3.524a9.296 9.296 0 00-3.332-1.621c-2.519-.324-3.135-.094-5.426.762-1.457.543-3.659 1.365-7.5 2.459a13.564 13.564 0 00-4.156 1.891 7.783 7.783 0 00-2.221 2.364 9.632 9.632 0 00-1.159 4.551c-.056.902-.097 1.554-.484 1.682a5.83 5.83 0 01-.725-1.694c-.515-2.07.101-4.561 1.73-7.02a12.957 12.957 0 014.918-4.538 25.306 25.306 0 017.308-1.502c2.196-.225 3.931-.402 4.426-1.103a.822.822 0 00.106-.709c-.251-1.005-1.922-2.633-5.26-5.127a66.199 66.199 0 00-15.728-9.149 33.9 33.9 0 00-6.393-1.772 30.38 30.38 0 00-5.816-.425 13.062 13.062 0 00-6.733 2.785 23.572 23.572 0 00-3.544 3.15 23.98 23.98 0 00-3.056 4.113 46.59 46.59 0 00-3.467 7.857c-.819 2.255-1.411 3.883-2.115 4.077a.669.669 0 01-.615-.179 2.414 2.414 0 01-.657-1.364 11.43 11.43 0 011.431-8.139 40.603 40.603 0 016.768-8.489c2.259-2.233 4.123-3.722 4.142-3.737-.005 0-.01.002-.014.003-.625.073-3.939.476-7.865 1.36a53.89 53.89 0 00-6.687 1.921 21.55 21.55 0 00-5.707 2.943c-3.391 1.698-5.269 4.985-5.575 9.766-.1 1.867-.007 3.739.276 5.587.206 1.396.482 2.78.827 4.147a16.748 16.748 0 002.481 4.507 18.83 18.83 0 012.847 5.278 3.321 3.321 0 01-1.175 3.709 11.487 11.487 0 00-2.382 2.436 5.906 5.906 0 00-.98 2.39c-.277 1.649.12 3.494.619 5.831l.074.299zm52.243-37.013c.23.926-.982 1.52-2.817 2.421-.509.249-1.085.532-1.676.846-1.25.665-2.412 1.412-3.437 2.073a15.165 15.165 0 01-4.418 2.28c-.432.092-.683.01-.746-.243-.166-.668.982-2.436 1.905-3.858.283-.435.55-.847.762-1.196a7.907 7.907 0 012.987-2.258 13.987 13.987 0 014.409-1.451 2.945 2.945 0 012.458.507c.265.238.462.541.573.879z" fill="#ffccc4"/><path d="M289.821 61.035a6.636 6.636 0 00-1.769-1.851c-.516-.4-1.75-1.534-3.31-2.967l-.017-.016c-2.586-2.378-6.127-5.637-9.446-8.378-1.815-1.498-3.375-2.683-4.637-3.523a9.3 9.3 0 00-3.332-1.619c-2.517-.32-3.137-.091-5.425.761-1.458.544-3.659 1.367-7.499 2.461a13.574 13.574 0 00-4.155 1.892 7.8 7.8 0 00-2.226 2.364 9.625 9.625 0 00-1.156 4.55c-.057.902-.098 1.555-.484 1.683a5.793 5.793 0 01-.725-1.7c-.516-2.069.1-4.563 1.73-7.018a12.936 12.936 0 014.916-4.538 25.196 25.196 0 017.307-1.504c2.196-.225 3.931-.403 4.425-1.108a.822.822 0 00.106-.709 1.95 1.95 0 00-.192-.465c-.566-1.021-2.176-2.502-5.068-4.66a66.167 66.167 0 00-15.728-9.144 33.917 33.917 0 00-6.393-1.771 30.376 30.376 0 00-5.815-.425 13.075 13.075 0 00-6.733 2.786 23.651 23.651 0 00-3.541 3.157 24.069 24.069 0 00-3.054 4.114 46.537 46.537 0 00-3.465 7.848l-.005.002c-.819 2.254-1.41 3.883-2.115 4.077a.67.67 0 01-.615-.18.877.877 0 01-.283-.344 4.212 4.212 0 01-.374-1.019 11.42 11.42 0 011.434-8.139 40.55 40.55 0 016.763-8.484c2.247-2.222 4.124-3.724 4.141-3.739l-.014.001a78.79 78.79 0 00-7.864 1.36 53.88 53.88 0 00-6.686 1.922 21.552 21.552 0 00-5.707 2.944c-3.392 1.702-5.266 4.989-5.573 9.771-.1 1.867-.007 3.739.276 5.587.207 1.395.484 2.779.83 4.146.179.641.44 1.256.777 1.831.468.845 1.068 1.733 1.703 2.674.649.964 1.321 1.958 1.858 2.927a9.86 9.86 0 01.991 2.351c.126.474.17.966.13 1.455a47.595 47.595 0 0013.662 5.944 43.443 43.443 0 0021.276.124c17.5-4.257 41.638-5.036 51.204-5.173a2.34 2.34 0 00-.123-.258zm-50.816-16.977a.358.358 0 01-.036-.094c-.167-.667.981-2.435 1.903-3.856.282-.434.548-.844.759-1.196a7.946 7.946 0 012.987-2.256 13.995 13.995 0 014.409-1.451 2.947 2.947 0 012.454.508c.174.169.324.361.447.57.055.097.097.201.125.309.231.926-.985 1.523-2.816 2.421l-.016.009c-.504.247-1.079.529-1.659.838-1.248.664-2.409 1.411-3.428 2.067l-.005.003a15.123 15.123 0 01-4.417 2.28c-.368.078-.607.028-.707-.152z" fill="#ff8573"/></g><path d="M165.64 165.626h66.3l-5.96 53.639H171.6l-5.96-53.639z" fill="#f1eeee" fill-rule="nonzero"/><ellipse cx="198.792" cy="165.626" rx="33.152" ry="5.215" fill="#515151"/><ellipse cx="198.792" cy="218.892" rx="27.192" ry="6.332" fill="#f0f0f0"/><path d="M316.834 335.743a1.992 1.992 0 01-1.783.071l-46.522-26.86c-.456-.263-.4-.723.132-1.024l22.387-12.814c13.5-5.883 9.977-26.421 10.432-26.158l42.2 22.4c.456.263 4.582 28.065-4.457 31.576l-22.389 12.809z" fill="#ececec" fill-rule="nonzero"/><path d="M304.229 333.347a1.992 1.992 0 01-1.783.071l-46.522-26.86c-.456-.263-.4-.723.132-1.024l25.317-14.767c12.363-7.184 9.977-26.421 10.432-26.158l42.2 22.4c.456.263 4.582 28.065-4.457 31.576l-25.319 14.762z" fill="#fff" fill-rule="nonzero"/><path d="M249.455 209.444V64.76c0-3.56 2.158-5.194 4.816-3.645l195.903 115.286c2.658 1.548 4.816 5.7 4.816 9.255v161.319l-14.308-8.334-28.646-16.687-162.581-95.875v-16.635z" fill="#ececec" fill-rule="nonzero"/><path d="M216.452 221.614V68.508c0-3.56 2.158-5.192 4.816-3.644l210.1 122.384c2.658 1.549 4.816 5.7 4.816 9.255v169.74L216.452 238.248v-16.634z" fill="#fff" fill-rule="nonzero"/><path d="M420.827 201.944L228.751 91.991v138.336l192.076 109.954V201.944z" fill="#bdbcbc" fill-rule="nonzero"/><path d="M321.315 193.549l-58.064-33.909v6.763l58.064 33.911v-6.765zM284.807 158.189l-6.642-3.879-14.911-8.708v6.763l21.553 12.587v-6.763zM322.366 180.45l-33.288-19.44v6.764l33.288 19.439v-6.763zM321.174 206.298l-58.065-33.909v6.763l58.065 33.909v-6.763z" fill="#fff" fill-rule="nonzero"/><path d="M303.955 338.67c0 .11-.059.161-.14.114l-47.881-27.644a.37.37 0 01-.153-.283l-.164-4.647c0-.109.059-.161.139-.114l47.882 27.644a.376.376 0 01.152.283l.165 4.647z" fill="#f2f2f2" fill-rule="nonzero"/><g fill-rule="nonzero"><path d="M343.367 430.992a4.139 4.139 0 01-3.7.148L165.969 330.858c-.946-.547-.824-1.5.273-2.129l46.5-26.608a4.142 4.142 0 013.7-.149L390.14 402.256c.948.547.824 1.5-.273 2.128l-46.5 26.608z" fill="#ececec"/><path d="M320.585 434.192a4.637 4.637 0 01-4.148.166L143.153 334.312c-1.06-.612-.923-1.68.306-2.382l52.056-29.787a4.632 4.632 0 014.147-.166l173.284 100.046c1.06.612.923 1.679-.306 2.383l-52.055 29.786z" fill="#fff"/><path d="M279.499 384.236a1.81 1.81 0 01-1.617.065l-101.68-58.706c-.414-.238-.359-.654.119-.929l20.295-11.608a1.8 1.8 0 011.616-.065l101.678 58.706c.413.239.36.655-.12.929l-20.291 11.608zM197.421 354.096a.816.816 0 01-.727.028l-33.931-19.59c-.185-.107-.161-.295.054-.417l9.128-5.223a.81.81 0 01.727-.029l33.93 19.591c.186.107.161.295-.054.418l-9.127 5.222zM262.679 391.483a.813.813 0 01-.727.029l-59.9-34.583c-.186-.107-.161-.295.053-.417l9.128-5.223a.81.81 0 01.727-.029l59.9 34.583c.186.107.161.294-.053.418l-9.128 5.222zM319.805 423.885a3.004 3.004 0 01-2.689.108l-38.833-22.421c-.687-.4-.6-1.089.2-1.545l33.761-19.319a3.003 3.003 0 012.69-.107l38.833 22.42c.687.4.6 1.089-.2 1.545l-33.762 19.319z" fill="#ececec"/><path d="M317.591 441.643c0 .157-.084.231-.2.164L142.897 341.058a.536.536 0 01-.22-.407l-.236-6.667c0-.158.085-.231.2-.165l174.494 100.746a.534.534 0 01.22.406l.236 6.672z" fill="#f2f2f2"/></g><path d="M321.174 219.805l-58.065-33.909v6.763l58.065 33.909v-6.763zM321.174 233.374l-58.065-33.909v6.763l58.065 33.909v-6.763zM321.174 246.881l-58.065-33.909v6.763l58.065 33.909v-6.763z" fill="#fff" fill-rule="nonzero"/><circle cx="331.99" cy="139.328" r="2.603" fill="#9a9a9a"/><path d="M127.55 300.021a4.268 4.268 0 01-3.763.684l-44.281-17.891c-1.046-.422-1.057-1.414-.026-2.218l66.743-51.161a4.271 4.271 0 013.763-.683l44.281 17.891c1.046.422 1.057 1.414.026 2.218l-66.743 51.16z" fill="#ececec" fill-rule="nonzero"/><path d="M124.642 317.65a4.57 4.57 0 01-4.091.164l-44.28-25.565c-1.045-.6-.91-1.657.3-2.351l78.382-44.3a4.575 4.575 0 014.092-.163L203.325 271c1.046.6.91 1.657-.3 2.35l-78.383 44.3z" fill="#fff" fill-rule="nonzero"/><path d="M154.239 255.868l28.69 16.564a1.587 1.587 0 01.688 2.119 1.586 1.586 0 01-2.179.463l-28.69-16.564a1.587 1.587 0 01-.688-2.119 1.587 1.587 0 012.179-.463zM147.613 260.127l28.69 16.564a1.587 1.587 0 01.688 2.119 1.586 1.586 0 01-2.179.463l-28.69-16.564a1.587 1.587 0 01-.688-2.119 1.587 1.587 0 012.179-.463zM140.041 263.913l28.69 16.564a1.587 1.587 0 01.688 2.119 1.586 1.586 0 01-2.179.463l-28.69-16.564a1.588 1.588 0 01-.689-2.119 1.588 1.588 0 012.18-.463zM131.996 267.699l28.69 16.564a1.587 1.587 0 01.688 2.119 1.586 1.586 0 01-2.179.463l-28.69-16.564a1.588 1.588 0 01-.689-2.119 1.588 1.588 0 012.18-.463z" fill="#f0f0f0" fill-rule="nonzero"/><g fill-rule="nonzero"><path d="M49.443 165.694c-.067-.054-.074-.199-.074-.2a.83.83 0 00.174.213c.38-.136 1.589-2.075 5.417-13.542a150.302 150.302 0 016.069-16.103 27.411 27.411 0 013.062-5.173 7.558 7.558 0 013.29-2.633 4.742 4.742 0 014.314.743 12.7 12.7 0 003.369 1.683c.752.197 1.303.139 1.629-.18.82-.791.084-3-.7-4.318a28.958 28.958 0 01-.259-.447 12.74 12.74 0 00-2.758-3.629 3.966 3.966 0 00-3.25-.958c-2.142.372-4.48 2.606-6.944 6.637-1.645 2.69-3.055 4.154-4.193 4.35a1.31 1.31 0 01-1.093-.285 4.505 4.505 0 01-1.193-2.682 19.402 19.402 0 01-.19-4.413c.101-3.121.87-6.185 2.255-8.983a18.633 18.633 0 016.244-6.902 14.964 14.964 0 013.992-1.678 25.283 25.283 0 014.931-.744c7.112-.453 11.922 2.158 15.693 4.775a13.576 13.576 0 004.423 1.947c1.276.308 2.265.341 2.388.179.027-.035.008-.078-.052-.127a.933.933 0 00-.191-.111.884.884 0 01-.168-.11 13.689 13.689 0 01-1.473-1.708c-.332-.418-.707-.892-1.125-1.4a34.68 34.68 0 00-4.859-4.938 17.929 17.929 0 00-9.979-4.258c-5.379-.401-8.816 1.323-10.752 2.839a10.632 10.632 0 00-2.943 3.422c.044-1.41.362-2.798.937-4.087a26.058 26.058 0 012.569-4.808 45.85 45.85 0 015.218-6.369 11.808 11.808 0 018.539-3.366c3.668.03 7.301.726 10.721 2.052a69.652 69.652 0 0118.69 10.525c.219.177.432.35.632.523.323.273.637.534.934.774 2.671 2.164 4.3 3.014 5.124 2.677.619-.253.719-1.126.825-2.05.036-.384.096-.765.179-1.142.246-.993-.632-2.905-3.145-4.941a25.18 25.18 0 00-12.015-4.895 35.79 35.79 0 01-12.036-4.567c-3.503-1.896-6.269-3.393-9.265-2.435-4.756 1.52-6.706 3.714-7.19 4.351 1.068-1.507 6.763-9.193 13.885-12.623a77.95 77.95 0 0111.264-4.604 44.545 44.545 0 0112.247-1.887c4.927-.01 9.829.694 14.554 2.089 5.017 1.435 9.182 3.361 11.724 5.419.111.091.223.181.326.274 2.493 2.154 4.459 3.859 5.523 5.899a8.14 8.14 0 01.903 3.446 15.823 15.823 0 01-.601 4.661 4.578 4.578 0 001.786 5.059c1.85 1.498 4.729 2.489 7.514 3.447 2.582.889 5.021 1.728 6.474 2.905a57.797 57.797 0 014.355 3.876 37.646 37.646 0 014.942 5.923c3.633 5.516 4.293 10.691 1.966 15.379a29.724 29.724 0 01-3.842 7.978 74.529 74.529 0 01-5.768 7.665 109.454 109.454 0 01-7.549 8.041c.006-.024.822-3.194 1.458-7.552.805-4.947.943-9.98.408-14.964a21.39 21.39 0 00-6.63-12.546 2.035 2.035 0 00-1.105-.595.81.81 0 00-.729.292c-.311.406-.315 1.245-.011 2.639.277 1.275.78 2.891 1.362 4.763a69.977 69.977 0 013.009 12.432c.269 2.347.286 4.715.051 7.065a32.553 32.553 0 01-1.281 6.409c-1.205 3.895-3.065 7.05-5.104 8.654a41.853 41.853 0 01-6.755 4.359 46.858 46.858 0 01-8.509 3.357c-6.748 1.958-14.895 2.936-24.911 2.98-5.74.026-8.939-.377-10.049-1.275a1.14 1.14 0 01-.473-.87c-.038-1.189 1.723-2.822 3.958-4.888 2.283-2.117 5.124-4.753 6.8-7.72a35.75 35.75 0 003.52-10.436c.587-3.497.695-8.145-2.119-10.423-.471-.379-1-.679-1.566-.891-.316.459-.159 1.371.057 2.631a21.58 21.58 0 01.287 7.133 19.865 19.865 0 01-1.396 4.937 27.347 27.347 0 01-3.39 5.747c-3.319 4.39-5.065 7.126-6.218 8.934-1.812 2.843-2.3 3.607-5.342 5.341-1.589.66-3.293.993-5.013.981-2.087.123-4.788.112-8.029-.03-5.929-.263-12.534-.911-17.356-1.383-2.93-.288-5.245-.516-6.149-.526-2.59-.04-3.654-.598-4.06-.926l-.089-.073a.1.1 0 01-.1-.011zm79.97-40.927a1.181 1.181 0 00-1.013-.305 3.103 3.103 0 00-1.67 1.877c-1.012 2.087.545 5.813 2.028 8.573a37.042 37.042 0 003.845 5.88c.004-.075.405-7.772-.887-11.628-.778-2.307-1.551-3.788-2.303-4.397zm2.037-37.531c-2.432-1.969-4.555-2.767-5.821-2.187a1.723 1.723 0 00-1.124 1.347c-.237 1.858 2.592 4.691 4.121 5.929.582.471 1.176.994 1.806 1.546a69.913 69.913 0 002.182 1.863 27.645 27.645 0 002.356 1.728c.844.547 1.417.71 1.745.492.589-.391.356-2.003.017-3.914-.299-1.658-2.617-4.646-5.282-6.804z" fill="#ffccc4"/><path d="M49.746 165.749l-.09-.073a.085.085 0 00.022-.009c.505.136 1.851.504 3.463.979a5.907 5.907 0 01-3.395-.897zm.098-.227c.564-.65 1.933-3.498 5.233-13.391a150.105 150.105 0 016.069-16.104 27.438 27.438 0 013.061-5.173 7.568 7.568 0 013.291-2.633 4.74 4.74 0 014.31.749 12.691 12.691 0 003.37 1.683c.751.197 1.303.139 1.629-.179.82-.791.085-3-.699-4.317-.077-.129-.164-.282-.257-.445a12.743 12.743 0 00-2.759-3.629 3.964 3.964 0 00-3.249-.958c-2.146.37-4.484 2.602-6.949 6.637-1.645 2.69-3.056 4.155-4.193 4.35a1.317 1.317 0 01-1.093-.285 4.504 4.504 0 01-1.192-2.682 19.345 19.345 0 01-.19-4.413c.1-3.121.869-6.184 2.255-8.982a18.64 18.64 0 016.244-6.904 14.956 14.956 0 013.993-1.678 25.287 25.287 0 014.931-.747c7.113-.453 11.922 2.158 15.692 4.775a13.576 13.576 0 004.423 1.947c1.277.308 2.267.341 2.387.179.028-.034.009-.077-.05-.126a1.044 1.044 0 00-.191-.111.853.853 0 01-.168-.11 13.729 13.729 0 01-1.471-1.705 99.904 99.904 0 00-1.128-1.403 34.633 34.633 0 00-4.859-4.939 17.922 17.922 0 00-9.978-4.258c-5.38-.401-8.816 1.323-10.753 2.839a10.596 10.596 0 00-2.942 3.422c.043-1.41.361-2.798.936-4.087a26.035 26.035 0 012.57-4.808 45.713 45.713 0 015.217-6.369 11.81 11.81 0 018.539-3.366c3.669.03 7.301.726 10.722 2.052a69.668 69.668 0 0118.69 10.525c.217.176.432.35.631.523.323.273.637.534.935.775 2.671 2.163 4.299 3.012 5.123 2.676.62-.253.719-1.126.826-2.05a9.15 9.15 0 01.18-1.141c.245-.993-.633-2.906-3.146-4.941a25.168 25.168 0 00-12.015-4.896 35.816 35.816 0 01-12.037-4.567c-3.502-1.896-6.268-3.393-9.263-2.436-4.758 1.522-6.708 3.715-7.191 4.352 1.068-1.507 6.762-9.193 13.885-12.623a77.832 77.832 0 0111.264-4.603 44.551 44.551 0 0112.247-1.888 51.068 51.068 0 0114.554 2.089c5.017 1.435 9.182 3.361 11.723 5.419.111.09.223.181.326.273 2.494 2.155 4.46 3.86 5.523 5.9a8.125 8.125 0 01.903 3.446 15.822 15.822 0 01-.6 4.661 4.384 4.384 0 00.583 3.797c-11.29 3.903-32.452 13.482-47.299 33.78a105.057 105.057 0 01-15.528 16.977 102.188 102.188 0 01-15.018 10.919 92.467 92.467 0 01-11.893 5.998 59.889 59.889 0 01-6.155 2.209l.001-.005z" fill="#ffbdb4"/></g><path d="M152.721 111.67c14.945 9.266 25.955 24.007 29.618 42.246 0 0 1.651 7.793 2.97 14.57l.054.278-1.964.378c-2.187-11.335-4.148-22.623-9.075-32.609l-.13-.26c-5.11-9.52-13.372-17.227-22.522-22.9 0 0 .794-1.859 1.049-1.703zM208.115 63.145c-.062.086-.119.176-.177.266-8.95 14.226-4.95 35.092-3.254 52.084 1.762 17.654 1.584 35.437-.937 53.228l-1.992-.199c3.009-20.59 2.644-41.85-.33-62.832-1.997-14.422-2.308-29.857 4.055-42.007.369-.706 1.005-1.7 1.005-1.7l1.63 1.16z" fill="#ffccc4" fill-rule="nonzero"/><path d="M154.43 50.515c11.7 16.276 21.47 34.204 28.443 52.729 7.704 20.467 7.648 43.726 2.98 65.167l-1.975-.335c4.946-21.973 4.554-45.111-3.553-65.875a231.894 231.894 0 00-27.793-50.899l1.622-1.17.276.383z" fill="#ffccc4" fill-rule="nonzero"/><path d="M202.179 147.106s-1.866-5.09-.129-9.851c1.737-4.761 7.244-20.031 6.334-28.659-.909-8.629-7.212-16.775-14.184-15.778-6.973.997-3.732 9.924-10.064 6.055-6.332-3.869-24.238 2.113-20.673 17.657 3.566 15.544 11.355 20.993 13.603 21.772 1.109.383-2.67-7.141-.598-12.669 2.037-5.438 7.532-8.942 7.981-7.064.89 3.71-3.107 8.284-3.868 11.934-.761 3.651-.808 12.475 9.84 15.252a51.26 51.26 0 0011.758 1.351z" fill="#ffafa3" fill-rule="nonzero"/><path d="M420.827 201.945l-121.792 68.113 121.792 70.223V201.945z" fill="#515151" fill-rule="nonzero"/><path d="M344.403 192.07l-15.08-8.805v73.854l15.08 8.805V192.07zM365.227 204.375l-15.08-8.805v73.854l15.08 8.805v-73.854zM386.05 215.26l-15.08-8.805v73.854l15.08 8.805V215.26z" fill="#fff" fill-rule="nonzero"/><path d="M155.372 40.093c.423 3.052 14.649-1.126 15.125 7.004.476 8.13-4.941 16.664-9.444 16.649-4.503-.015-5.102 7.957-25.181-6.748-20.079-14.706-48.762 7.026-53.399 11.784-4.637 4.757-.264-5.715 6.445-10.572 6.709-4.856 36.512-14.062 44.731-15.84 8.219-1.779 19.266-10.053 23.08-7.34 3.814 2.713-1.357 5.063-1.357 5.063zM137.303 291.977l3.151-4.751 1.223 5.601-5.824 29.962a2.035 2.035 0 01-2.375 1.601l-.397-.077a2.035 2.035 0 01-1.601-2.375l5.823-29.961z" fill="#ff8573" fill-rule="nonzero"/><path d="M124.291 298.874l4.308-3.3-.635 5.42-14.525 25.158a1.938 1.938 0 01-2.634.706l-.333-.193a1.936 1.936 0 01-.706-2.633l.001-.001 14.524-25.157z" fill="#515151" fill-rule="nonzero"/></g></svg>