<svg viewBox="0 0 60 53" xmlns="http://www.w3.org/2000/svg" fill-rule="evenodd" clip-rule="evenodd"><path fill="none" d="M0 0h60v53H0z"/><clipPath id="a"><path d="M0 0h60v53H0z"/></clipPath><g clip-path="url(#a)"><path fill="none" d="M0 0h59.854v52.621H0z"/><path d="M58.598 51.62H1.4V16.464L16.802 4.515l25.591-.171 16.205 12.13V51.62z" fill="#fff" fill-rule="nonzero"/><path d="M19.663 34.297h20.672" fill="none" stroke="#ff8573" stroke-width="2"/><path fill="#ff8573" d="M10.737.883h38.526V36.59H10.737z"/><path d="M1.4 50.398V18.197l18.164 16.1L1.4 50.398zM58.598 18.197v32.201l-18.164-16.1 18.164-16.101zM39.09 15.715c0 1.097-.17 2.102-.511 3.014-.34.912-.819 1.619-1.437 2.121a3.282 3.282 0 01-2.133.754c-.665 0-1.225-.201-1.681-.603a2.42 2.42 0 01-.812-1.542h-.092c-.309.673-.752 1.198-1.328 1.577-.575.379-1.257.568-2.046.568-1.159 0-2.065-.396-2.718-1.188-.653-.792-.98-1.869-.98-3.229 0-1.576.456-2.857 1.368-3.843.912-.985 2.11-1.478 3.594-1.478.525 0 1.12.048 1.785.145a11.3 11.3 0 011.797.4l-.29 5.449v.255c0 1.375.514 2.063 1.542 2.063.703 0 1.275-.415 1.716-1.246.44-.831.661-1.911.661-3.24 0-1.399-.286-2.624-.858-3.675a5.915 5.915 0 00-2.441-2.429c-1.055-.568-2.266-.852-3.634-.852-1.723 0-3.223.357-4.498 1.072a7.115 7.115 0 00-2.921 3.061c-.673 1.325-1.009 2.857-1.009 4.596 0 2.358.622 4.17 1.867 5.437 1.244 1.268 3.037 1.902 5.379 1.902 1.623 0 3.307-.333 5.054-.997v1.541c-1.484.65-3.169.974-5.054.974-2.806 0-4.983-.771-6.533-2.313-1.549-1.541-2.324-3.696-2.324-6.462 0-2.01.413-3.799 1.24-5.368a8.813 8.813 0 013.536-3.646c1.53-.862 3.285-1.292 5.263-1.292 1.662 0 3.14.349 4.434 1.049a7.328 7.328 0 013.003 2.979c.707 1.287 1.061 2.769 1.061 4.446zm-11.987 1.519c0 1.963.753 2.944 2.26 2.944 1.6 0 2.469-1.209 2.609-3.628l.162-3.026a6.767 6.767 0 00-1.82-.232c-1.005 0-1.791.348-2.359 1.043-.568.696-.852 1.662-.852 2.899z" fill="#fff" fill-rule="nonzero"/><path d="M42.063 5.346l-24.915.167L2.4 16.953V50.62h55.198V16.975L42.063 5.346m.66-2.004l16.875 12.632V52.62H.4V15.974L16.457 3.517l26.266-.175z" fill="#ff8573" fill-rule="nonzero"/><path d="M18.057 34.297L2.4 20.419v27.756l15.657-13.878m3.015 0L.4 52.621V15.974l20.672 18.323zM41.941 34.298l15.657 13.878V20.42L41.941 34.298m-3.015 0l20.672-18.324v36.647L38.926 34.298z" fill="#ff8573" fill-rule="nonzero"/></g></svg>