<svg viewBox="0 0 336 281" xmlns="http://www.w3.org/2000/svg" fill-rule="evenodd" clip-rule="evenodd" stroke-linejoin="round" stroke-miterlimit="1.414"><path fill="none" d="M0 0h336v281H0z"/><clipPath id="a"><path d="M0 0h336v281H0z"/></clipPath><g clip-path="url(#a)"><path fill="none" d="M.233 0h335.533v280.481H.233z"/><path d="M4.233 4v129.632h140.426V4H4.233m-4-4h148.426v137.632H.233V0z" fill="#f6f6f6" fill-rule="nonzero"/><path d="M145.606 127.09l131.69 74.658-133.248 78.733-131.69-74.658 133.248-78.733z" fill="#f6f6f6" fill-rule="nonzero"/><path fill="#fff" d="M4.233 4h140.426v129.632H4.233z"/><path d="M11.027 127.713s5.58-46.982 13.484-47.922c7.904-.94 4.185 19.732 18.134 20.672 13.949.94 13.485-29.129 26.039-33.826 12.554-4.697 14.414 3.759 29.292 0 14.878-3.759 14.879-11.276 29.293-25.37 14.414-14.094 21.389 0 21.389 0v86.446H11.027z" fill="#ffccc4" fill-rule="nonzero"/><path d="M227.234 84.681a6.004 6.004 0 00-6.001-6h-132c-3.311 0-6 2.689-6 6v135c0 3.311 2.689 6 6 6h132c3.313 0 6-2.689 6-6v-135z" fill="#515151"/><path fill="#f2f2f2" d="M133.562 165.745h31.414v3.455h-31.414zM133.562 157.264h63.141v3.455h-63.141zM133.562 148.782h15.393v3.455h-15.393zM152.409 148.782h44.293v3.455h-44.293zM168.744 165.745h27.958v3.455h-27.958z"/><path fill="#fff" d="M93.233 26.681h124v178h-124z"/><path d="M92.79 26.098l124.443.583v162.544L92.79 26.098z" fill="#f6f6f6" fill-rule="nonzero"/><path fill="#e3e2e2" d="M120.75 45.319h80.253v21.242H120.75zM152.426 75.731h48.577v3.79h-48.577zM120.75 86.305h80.253v3.79H120.75zM120.75 96.878h34.452v3.79H120.75zM120.75 108.724h80.253v3.79H120.75zM120.75 118.026h16.881v3.79H120.75zM152.426 118.026h48.577v3.79h-48.577zM170.341 96.878h30.662v3.79h-30.662zM120.75 75.731h16.881v3.79H120.75z"/><path fill="#e3e2e2" fill-opacity=".047" d="M83.233 126.681h129v95h-129z"/><path d="M126.424 127.74h135.057c4.144 0 9.087 3.183 7.5 7.344l-37.513 86.91c-1.584 3.591-3.359 7.344-7.5 7.344H88.908c-4.144 0-6.276-6.75-6.276-10.807l36.289-83.447c2.584-4.488 3.359-7.344 7.503-7.344z" fill="#515151" fill-rule="nonzero"/><path d="M211.095 114.887h62.244c1.91 0 4.188 1.438 3.458 3.318l-17.291 39.267c-.73 1.622-1.548 3.315-3.458 3.315h-62.241a3.406 3.406 0 01-3.458-3.315l17.29-39.267c1.19-2.028 1.548-3.318 3.457-3.318z" fill="#515151" fill-rule="nonzero"/><path d="M215.674 119.847h49.761c1.526 0 3.348 1.15 2.764 2.653l-5.726 13.4c-.584 1.3-1.238 2.653-2.764 2.653h-49.762a2.723 2.723 0 01-2.764-2.652l5.726-13.4c.953-1.622 1.238-2.654 2.764-2.654z" fill="#ff8573" fill-rule="nonzero"/><path fill="#f6f6f6" d="M203.533 151.125h132.234v64.768H203.533z"/><path d="M74.839 25.912l-15.721 9.1.001-18.2 15.72 9.1z" fill="#ececec" fill-rule="nonzero"/><path fill="#ececec" d="M15.109 23.55h50.298v4.716H15.109z"/><circle cx="236.734" cy="184.181" r="21.5" fill="#fff"/><ellipse cx="236.734" cy="175.681" rx="5.5" ry="6" fill="#515151"/><ellipse cx="236.734" cy="187.181" rx="8.5" ry="7.5" fill="#515151"/><path fill="#515151" d="M228.234 187.681h17v7h-17z"/><path fill="#e3e2e2" d="M270.234 170.681h49v3h-49zM270.234 178.014h49v3h-49zM270.234 185.348h49v3h-49zM270.234 192.681h49v3h-49z"/></g></svg>