<svg xmlns="http://www.w3.org/2000/svg" width="142.154" height="37.934"><g fill="#fff"><text transform="translate(31.153 26.843)" font-size="27" font-family="TimesNewRomanPS-BoldItalicMT,Times New Roman" font-weight="700" font-style="italic" letter-spacing=".035em"><tspan x="0" y="0">Optimum</tspan></text><path d="M31.453 37.934c-8.558 0-16.008-.967-21.546-2.8a21.255 21.255 0 01-6.833-3.485 7.729 7.729 0 01-3-4.866 8.661 8.661 0 01.368-3.81A14.446 14.446 0 012.47 19.02a32.207 32.207 0 018.368-7.733 61.7 61.7 0 0113-6.5A78.894 78.894 0 0140.143.712 74.1 74.1 0 0150.419 0a72.181 72.181 0 0117.558 2.131 44.365 44.365 0 0113.252 5.5 69.285 69.285 0 00-22.712-3.622 77.047 77.047 0 00-9.355.568c-10.378 1.274-20.626 4.572-28.116 9.048a30.821 30.821 0 00-8.153 6.682c-1.9 2.369-2.74 4.637-2.482 6.74a6.484 6.484 0 002.782 4.3 20.775 20.775 0 006.547 3.083c5.336 1.623 12.531 2.481 20.808 2.481 2.888 0 5.868-.108 8.857-.32l-.334.049-.577.082a122.929 122.929 0 01-17.041 1.212z"/></g></svg>