<svg viewBox="0 0 426 423" xmlns="http://www.w3.org/2000/svg" fill-rule="evenodd" clip-rule="evenodd"><path fill="none" d="M0 0h425.805v422.099H0z"/><clipPath id="a"><path d="M0 0h425.805v422.099H0z"/></clipPath><g clip-path="url(#a)"><path d="M270.217 215.05c-.921-3.013-1.137-7.422-.609-12.416a49.14 49.14 0 013.383-13.742 42.883 42.883 0 016.1-10.249 74.95 74.95 0 018.17-8.392 32.762 32.762 0 018.045-5.492 16.62 16.62 0 013.353-1.223c-.053.141-5.495 14.652-7.829 24.729a13.016 13.016 0 00-.123 6.625 4.965 4.965 0 003.4 3.552 2.47 2.47 0 002.071-.139c.223-.206.275-1.929.353-4.537.051-6.074.608-12.133 1.666-18.115a32.55 32.55 0 012.931-8.796 14.237 14.237 0 012.325-3.25 8.978 8.978 0 013.025-2.076 44.03 44.03 0 017.565-2.359 24.966 24.966 0 015.213-.562 10.193 10.193 0 013.988.642 10.374 10.374 0 00-4.113 1.391c-2.052 1.182-4.829 3.627-6.41 8.572a12.386 12.386 0 00-.373 7.402 9.885 9.885 0 002.432 3.969c.28.293.554.556.795.789.43.339.785.761 1.045 1.242a.54.54 0 01.025.132c.001.044.004.088.01.132.013-.124.019-.248.018-.373.06-2.14.227-4.276.501-6.4a30.364 30.364 0 012.357-8.976 24.333 24.333 0 012.449-4.133 14.42 14.42 0 012.936-2.959 17.935 17.935 0 018.411-3.082 21.018 21.018 0 018.824 1.228 18.663 18.663 0 013.87 1.762 4.338 4.338 0 011.964 2.032c.118.361.066.758-.14 1.078-.585.944-2.401 1.675-5.396 2.172-4.489.745-7.326 2.031-8.427 3.808a3.815 3.815 0 00-.317 3.245 12.262 12.262 0 002.242 3.768c.113.144.219.278.308.394a6.885 6.885 0 002.449 1.822 3.761 3.761 0 002.989.325 2.086 2.086 0 001.131-1.474 7.852 7.852 0 00-.079-3.36 5.032 5.032 0 01.874-4.524c1.307-1.488 3.884-2.305 8.109-2.57a132.43 132.43 0 0115.289.377c11.617.718 13.784.338 14.045.047l.032.106c.146.478.258 1.632-.648 3.963-.316.811-.948 2.956-1.747 5.674-1.317 4.475-3.12 10.603-5.023 15.988-1.041 2.944-2.005 5.358-2.868 7.177a12.346 12.346 0 01-2.686 4.117c-2.645 2.09-3.503 2.249-6.694 2.842-2.029.378-5.096.948-10.213 2.327a18.03 18.03 0 01-6.019.69 10.359 10.359 0 01-4.141-1.174 12.764 12.764 0 01-4.427-4.385c-.681-.988-1.173-1.701-1.7-1.583-.019.82.093 1.638.332 2.423.828 2.707 3.23 5.123 6.764 6.804a17.193 17.193 0 008.696 1.802c3.252-.426 6.628-2.011 9.34-3.285 2.652-1.244 4.747-2.228 5.79-1.77.303.14.526.411.605.735.402 1.314-.387 4.31-2.481 9.427-3.652 8.92-7.46 15.839-11.643 21.153a45.103 45.103 0 01-6.062 6.386 40.415 40.415 0 01-6.325 4.461c-2.167 1.239-5.653 1.763-9.564 1.434a31.46 31.46 0 01-6.181-1.168 31.91 31.91 0 01-6.286-2.592 61.71 61.71 0 01-9.313-6.564c-2.473-2.004-4.258-3.452-5.193-3.192a.888.888 0 00-.577.624 3.212 3.212 0 00.184 2.001c.359 1.175 1.939 5.244 7.189 8.281a53.875 53.875 0 0013.502 5.026c4.095.997 7.231 1.419 7.266 1.422a.133.133 0 01-.019.005c-.759.345-4.805 2.151-9.876 3.827a71.565 71.565 0 01-8.921 2.384 28.58 28.58 0 01-8.504.552c-5.022.385-9.401-2.071-13.015-7.3a36.127 36.127 0 01-3.504-6.546 55.625 55.625 0 01-1.889-5.284c-.527-1.721-.396-4.199-.258-6.823.148-2.831.302-5.758-.367-7.948a4.41 4.41 0 00-3.869-3.418 15.228 15.228 0 01-4.378-1.143 7.809 7.809 0 01-2.749-2.049c-1.442-1.687-2.251-4.058-3.275-7.058a5.423 5.423 0 01-.13-.385zm84.725 6.409c-.371-1.211-2.156-1.059-4.856-.831-.749.064-1.598.136-2.485.182-1.876.098-3.708.041-5.324-.009-2.634-.082-4.908-.153-6.584.425-.554.191-.784.455-.682.787.267.873 2.782 2.1 4.803 3.087.616.303 1.205.588 1.685.844 1.581.567 3.275.747 4.94.525a18.575 18.575 0 006.008-1.363c1.399-.63 2.246-1.41 2.448-2.255.137-.451.154-.931.048-1.391l-.001-.001z" fill="#ffccc4" fill-rule="nonzero"/><path d="M381.144 167.862a8.812 8.812 0 01-.745 3.315c-.315.811-.942 2.941-1.737 5.642l-.009.03c-1.315 4.471-3.116 10.593-5.019 15.979-1.041 2.943-2.004 5.357-2.866 7.175a12.343 12.343 0 01-2.682 4.119c-2.643 2.093-3.5 2.248-6.69 2.842-2.03.377-5.095.947-10.21 2.326a18.033 18.033 0 01-6.015.692 10.36 10.36 0 01-4.142-1.171 12.764 12.764 0 01-4.424-4.382c-.682-.988-1.174-1.702-1.701-1.584a7.652 7.652 0 00.332 2.422c.828 2.705 3.229 5.121 6.762 6.799a17.173 17.173 0 008.693 1.801c3.252-.425 6.625-2.009 9.336-3.283 2.651-1.246 4.745-2.229 5.789-1.766.304.14.527.411.606.735.061.215.094.437.099.66.054 1.547-.765 4.328-2.578 8.763-3.648 8.917-7.455 15.835-11.636 21.147a45.057 45.057 0 01-6.059 6.383 40.261 40.261 0 01-6.323 4.457c-2.166 1.24-5.65 1.763-9.56 1.435a31.356 31.356 0 01-6.178-1.167 31.861 31.861 0 01-6.284-2.59 61.738 61.738 0 01-9.305-6.557l-.007-.006c-2.471-2.003-4.258-3.451-5.191-3.19a.89.89 0 00-.578.621 1.176 1.176 0 00-.088.586c.029.481.121.956.272 1.414.359 1.175 1.938 5.241 7.191 8.277a53.847 53.847 0 0013.491 5.03c4.073.992 7.234 1.417 7.263 1.421 0 0-.006.001-.017.01-.761.346-4.812 2.154-9.868 3.826a71.52 71.52 0 01-8.918 2.384 28.569 28.569 0 01-8.502.552c-5.023.387-9.402-2.071-13.014-7.299a36.166 36.166 0 01-3.502-6.541 55.758 55.758 0 01-1.885-5.283 10.3 10.3 0 01-.373-2.613c-.044-1.281.03-2.702.109-4.205.08-1.538.164-3.128.112-4.598a13.088 13.088 0 00-.479-3.35 5.693 5.693 0 00-.848-1.742 63.193 63.193 0 0111.473-16.099 57.656 57.656 0 0124.105-14.682c22.808-7.119 50.793-22.726 61.764-29.112.02.125.032.251.036.377zm-46.183 54.032a.494.494 0 00.023.132c.266.872 2.78 2.103 4.8 3.085.616.3 1.199.585 1.681.841 1.58.568 3.274.749 4.938.527a18.556 18.556 0 006.006-1.362c1.398-.63 2.245-1.41 2.448-2.255.083-.311.122-.631.119-.953a1.746 1.746 0 00-.068-.437c-.371-1.211-2.156-1.058-4.858-.83l-.023.001c-.743.063-1.583.135-2.461.18-1.873.098-3.699.042-5.315-.007h-.001c-2.633-.081-4.907-.153-6.587.43-.474.16-.712.378-.702.648z" fill="#ff8573" fill-rule="nonzero"/><path d="M279.409 251.58l146.4 82.995-148.126 87.524-146.4-82.995 148.126-87.524z" fill="#f6f6f6" fill-rule="nonzero"/><path d="M324.548 294.923l71.509 40.54-72.355 42.753-71.509-40.54 72.355-42.753z" fill="#ececec" fill-rule="nonzero"/><path fill="#f6f6f6" fill-rule="nonzero" d="M42.784 25.909H293.84v327.654H42.784z"/><path fill="#fff" fill-rule="nonzero" d="M56.834 20.981h221.321v316.67H56.834z"/><path fill="#fff" d="M176.113 179.53h57.239v52.237h-57.239z"/><path fill="none" stroke="#ececec" stroke-width="3" d="M177.613 181.03h54.239v49.237h-54.239z"/><g fill="#515151"><path d="M188.69 204.402h6.153v13.331h-6.153zM197.304 195.788h6.153v21.944h-6.153zM205.917 198.249h6.153v19.483h-6.153zM214.121 201.736h6.153v15.997h-6.153z"/></g><path fill="#fff" d="M104.137 179.53h75.362v52.237h-75.362z"/><path fill="none" stroke="#ececec" stroke-width="3" d="M105.637 181.03h72.362v49.237h-72.362z"/><path d="M127.381 206.497c0-8.681 7.143-15.824 15.824-15.824 8.681 0 15.824 7.143 15.824 15.824 0 8.681-7.143 15.824-15.824 15.824-8.681 0-15.824-7.143-15.824-15.824z" fill="#ffccc4" fill-rule="nonzero"/><path d="M156.771 214.598a15.826 15.826 0 002.258-8.146c-.001-8.68-7.144-15.823-15.824-15.823v15.823l13.566 8.146z" fill="#ff8573"/><path fill="#f2f2f2" d="M104.506 67.091h128.846v7.051H104.506zM142.968 84.398h90.384v7.051h-90.384zM104.506 101.706h128.846v7.051H104.506zM104.506 119.013h64.102v7.051h-64.102zM104.506 136.321h128.846v7.051H104.506zM104.506 153.629h31.41v7.051h-31.41zM142.968 153.629h90.384v7.051h-90.384zM176.301 119.013h57.051v7.051h-57.051zM104.506 84.398h31.41v7.051h-31.41zM104.506 286.873h64.102v7.051h-64.102zM104.506 269.566h128.846v7.051H104.506zM104.506 252.258h31.41v7.051h-31.41zM142.968 252.258h90.384v7.051h-90.384zM176.301 286.873h57.051v7.051h-57.051z"/><path fill="#ffccc4" d="M104.506 227.803h128.846v5.401H104.506z"/><g fill-rule="nonzero"><path d="M149.013 11.79h37.486c10.448.001 19.045 8.598 19.045 19.046h-75.577c0-10.448 8.598-19.046 19.046-19.046z" fill="#515151"/><path d="M167.989 0c6.468 0 11.79 5.322 11.79 11.79v7.255h-23.58V11.79c0-6.468 5.322-11.79 11.79-11.79z" fill="#515151"/><path fill="#bdbcbc" d="M130.022 27.51h75.577v3.325h-75.577z"/></g><circle cx="168.158" cy="11.389" r="7.33" fill="#fff"/><path d="M66.609 265.467l-3.159 7.07-7.833-1.225-40.036-75.297-.002-.004c-1.457-2.74-.401-6.195 2.339-7.652h.001l1-.532c2.74-1.457 6.195-.401 7.652 2.34l.002.004 40.036 75.296z" fill="#515151" fill-rule="nonzero"/><path d="M41.129 214.012l-13.593 7.228-22.992-43.242c-2.232-4.197-1.274-9.07 2.14-10.886l1.232-.655c3.412-1.814 7.99.117 10.221 4.314l22.992 43.241z" fill="#fafafa" fill-rule="nonzero"/><path d="M66.13 277.671l-10.578-6.475a13.494 13.494 0 014.597-4.774 13.515 13.515 0 016.529-1.142l-.548 12.391z" fill="#f8f8f8" fill-rule="nonzero"/><path d="M65.424 282.145l4.746-2.523-7.182-13.506-4.745 2.523 7.181 13.506z" fill="#f8f8f8"/><path d="M73.438 291.933l-7.281-10.173 2.92-1.553 4.361 11.726z" fill="#515151" fill-rule="nonzero"/><path d="M23.535 213.822l13.768-7.32-1.558-2.93-13.768 7.321 1.558 2.929zM20.75 209.291l13.768-7.32-1.558-2.93-13.768 7.321 1.558 2.929z" fill="#515151"/><path d="M4.25 181.643l3.808-2.025-2.492-4.687-3.808 2.025 2.492 4.687z" fill="#9a9a9a"/><path d="M20.56 216.557l2.05-1.09L2.05 176.8 0 177.89l20.56 38.667z" fill="#9a9a9a"/><path d="M359.54 269.794a3.001 3.001 0 00-2.056-3.711l-97.897-28.071a3.001 3.001 0 00-3.711 2.057l-30.343 105.82a3 3 0 002.056 3.711l97.897 28.071a3 3 0 003.711-2.056l30.343-105.821z" fill="#fff"/><path d="M326.389 377.931l-99.703-28.589a2.073 2.073 0 01-1.413-2.55l30.862-107.626c.313-1.094 70.254 138.765 70.254 138.765z" fill="#fcfcfc" fill-opacity=".45" fill-rule="nonzero"/><g><path d="M272.812 295.68a1 1 0 00-.685-1.237l-10.635-3.049a1 1 0 00-1.237.685l-1.559 5.439a1 1 0 00.685 1.237l10.635 3.049a1 1 0 001.237-.685l1.559-5.439zM291.051 300.91a1 1 0 00-.685-1.237l-10.635-3.049a1 1 0 00-1.237.685l-1.559 5.439a1 1 0 00.685 1.237l10.635 3.049a1 1 0 001.237-.685l1.559-5.439zM308.754 305.986a1 1 0 00-.686-1.237l-10.634-3.049a1 1 0 00-1.237.685l-1.56 5.439a1 1 0 00.686 1.237l10.634 3.049a1 1 0 001.237-.685l1.56-5.439z" fill="#f8f8f8"/><path d="M326.994 311.216a1 1 0 00-.686-1.237l-10.634-3.049a1 1 0 00-1.237.686l-1.56 5.438a1 1 0 00.686 1.237l10.634 3.05a1 1 0 001.237-.686l1.56-5.439z" fill="#ff8573"/><g fill="#f8f8f8"><path d="M269.274 308.019a1 1 0 00-.685-1.237l-10.635-3.05a1 1 0 00-1.237.686l-1.559 5.439a1 1 0 00.685 1.237l10.635 3.049a1 1 0 001.237-.686l1.559-5.438zM287.513 313.249a1 1 0 00-.685-1.237l-10.635-3.05a1 1 0 00-1.237.686l-1.559 5.439a1 1 0 00.685 1.237l10.635 3.049a1 1 0 001.237-.686l1.559-5.438zM305.216 318.325a1 1 0 00-.686-1.237l-10.634-3.05a1.001 1.001 0 00-1.237.686l-1.56 5.439a1 1 0 00.686 1.237l10.634 3.049a1 1 0 001.237-.685l1.56-5.439zM323.456 323.555a1 1 0 00-.686-1.237l-10.634-3.049a1 1 0 00-1.237.685l-1.56 5.439a1 1 0 00.686 1.237l10.634 3.049a1 1 0 001.237-.685l1.56-5.439z"/></g><g fill="#f8f8f8"><path d="M265.736 320.356a1 1 0 00-.685-1.236l-10.635-3.05a1.001 1.001 0 00-1.237.686l-1.559 5.439c-.152.53.155 1.084.686 1.237l10.634 3.049a1 1 0 001.237-.686l1.559-5.439zM283.975 325.586a1 1 0 00-.685-1.236l-10.635-3.05a1.001 1.001 0 00-1.237.686l-1.559 5.439a1 1 0 00.686 1.236l10.634 3.05a1 1 0 001.237-.686l1.559-5.439zM301.678 330.663a1 1 0 00-.686-1.237l-10.634-3.05a1 1 0 00-1.237.686l-1.56 5.439c-.152.53.156 1.084.686 1.237l10.635 3.049a1 1 0 001.236-.686l1.56-5.438zM319.918 335.893a1 1 0 00-.686-1.237l-10.634-3.05a1.001 1.001 0 00-1.237.686l-1.56 5.439c-.152.53.156 1.085.686 1.237l10.634 3.049a1 1 0 001.237-.685l1.56-5.439z"/></g><g><path d="M262.198 332.695a1 1 0 00-.685-1.237l-10.635-3.049a1.001 1.001 0 00-1.237.686l-1.559 5.438a1 1 0 00.685 1.237l10.635 3.05a1 1 0 001.237-.686l1.559-5.439zM280.437 337.925a1 1 0 00-.685-1.237l-10.635-3.049a1.001 1.001 0 00-1.237.686l-1.559 5.438a1 1 0 00.685 1.237l10.635 3.05a1 1 0 001.237-.686l1.559-5.439z" fill="#f8f8f8"/><path d="M298.14 343.001a1.001 1.001 0 00-.686-1.237l-10.634-3.049a1 1 0 00-1.237.686l-1.56 5.438a1.001 1.001 0 00.686 1.237l10.634 3.05a1 1 0 001.237-.686l1.56-5.439z" fill="#515151"/><path d="M316.38 348.232a1 1 0 00-.686-1.237l-10.634-3.05a1 1 0 00-1.237.686l-1.56 5.439c-.152.53.155 1.084.686 1.237l10.634 3.049a1 1 0 001.237-.686l1.56-5.438z" fill="#ff8573"/></g></g><path d="M265.582 228.083l91.815 26.328c3.268.937 5.241 4.079 4.399 7.014l-11.922 41.577-103.661-29.725 11.922-41.576c.842-2.936 4.176-4.556 7.447-3.618z" fill="#515151" fill-rule="nonzero"/><g><path d="M349.166 269.398l-83.712-24.004-6.802 23.72 83.713 24.004 6.801-23.72z" fill="#fff"/><path d="M345.342 271.842l-77.939-22.349-4.926 17.177 77.939 22.348 4.926-17.176z" fill="#9a9a9a"/><path d="M345.341 271.841l-4.926 17.177-33.484-9.601 38.41-7.576z" fill="#f2f2f2" fill-rule="nonzero"/></g></g></svg>