<svg viewBox="0 0 67 65" xmlns="http://www.w3.org/2000/svg" fill-rule="evenodd" clip-rule="evenodd"><path fill="none" d="M0 0h66.99v64.227H0z"/><clipPath id="a"><path d="M0 0h66.99v64.227H0z"/></clipPath><g clip-path="url(#a)"><g fill-rule="nonzero"><path d="M18.89 63.227l-.067-.001h-.019l-.133.001a17.56 17.56 0 01-12.496-5.176A17.556 17.556 0 011 45.556V18.67A17.55 17.55 0 016.176 6.176a17.556 17.556 0 0112.623-5.175h.011L18.82 1h.07c.085 0 .172.002.257.006l.011.001.033.001.096.007a5.122 5.122 0 013.366 1.623 5.122 5.122 0 011.377 3.501v5.667a5.12 5.12 0 01-1.377 3.501 5.119 5.119 0 01-3.366 1.624l-.198.015h-8.283v30.335h8.283l.198.015a5.114 5.114 0 013.366 1.624 5.12 5.12 0 011.377 3.501v5.667a5.117 5.117 0 01-1.377 3.5 5.119 5.119 0 01-3.366 1.624l-.104.008-.035.001h-.018c-.08.004-.161.006-.24.006z" fill="#fff"/><path d="M18.89 62.227c.064 0 .129-.002.194-.005l.019-.001H19.131l.08-.006a4.123 4.123 0 002.71-1.308 4.124 4.124 0 001.109-2.819v-5.667a4.125 4.125 0 00-1.109-2.82 4.12 4.12 0 00-2.71-1.308l-.16-.012H9.806V15.946h9.245l.16-.012a4.119 4.119 0 002.71-1.308 4.125 4.125 0 001.109-2.82V6.139c0-1.05-.394-2.051-1.109-2.819a4.119 4.119 0 00-2.71-1.308l-.071-.005-.02-.001-.022-.001A4.812 4.812 0 0018.89 2h-.057l-.021.001L18.791 2h-.12A16.563 16.563 0 006.883 6.883 16.559 16.559 0 002 18.67v26.886c0 4.453 1.734 8.639 4.882 11.788a16.567 16.567 0 0011.789 4.883l.126-.001h.039l.054.001m0 2l-.08-.001-.139.001a18.553 18.553 0 01-13.203-5.469A18.549 18.549 0 010 45.556V18.67c0-4.986 1.942-9.675 5.468-13.202A18.556 18.556 0 0118.807.001L18.89 0c.103 0 .205.003.306.008l.167.005v.005a6.14 6.14 0 015.667 6.121v5.667a6.14 6.14 0 01-5.667 6.122v.018H11.806v28.335h7.557v.018a6.14 6.14 0 015.667 6.122v5.667a6.14 6.14 0 01-5.667 6.121v.005a5.996 5.996 0 01-.188.006 5.368 5.368 0 01-.285.007zM37.456 48.409l-3.794-3.794c5.614-5.951 6.685-14.936 2.626-22.04a18.743 18.743 0 00-1.823-2.616l3.707-3.707a23.645 23.645 0 015.892 15.688 23.71 23.71 0 01-6.608 16.468v.001z" fill="#ff8573"/><path d="M47.011 57.964l-6.1-6.1c9.026-9.57 10.746-24.015 4.22-35.436a30.225 30.225 0 00-2.931-4.204l5.961-5.961a38.022 38.022 0 017.034 11.714 38.258 38.258 0 012.44 13.509 38.128 38.128 0 01-10.623 26.478h-.001zM29.821 40.775l-1.951-1.951a9.613 9.613 0 001.348-11.337 9.598 9.598 0 00-.934-1.347l1.907-1.907a12.172 12.172 0 012.251 3.747c.517 1.382.781 2.846.779 4.322a12.204 12.204 0 01-3.399 8.472l-.001.001z" fill="#ff8573"/></g><path d="M17.377 17.08V1.64M17.377 62.371v-15.44" fill="none" stroke="#ff8573" stroke-width="2"/></g></svg>