<svg viewBox="0 0 60 61" xmlns="http://www.w3.org/2000/svg" fill-rule="evenodd" clip-rule="evenodd" stroke-linejoin="round" stroke-miterlimit="1.414"><path fill="none" d="M0 0h59.677v60.698H0z"/><clipPath id="a"><path d="M0 0h59.677v60.698H0z"/></clipPath><g clip-path="url(#a)"><path d="M16.28 41.439H59.2l-16.281 13.32H0l16.28-13.32z" fill="#ff8573" fill-rule="nonzero"/><g fill-rule="nonzero"><path d="M30.709 50.738c-1.466-2.217-4.666-7.152-7.833-12.68-5.597-9.77-8.556-16.917-8.556-20.669 0-4.377 1.705-8.493 4.8-11.589A16.286 16.286 0 0130.709 1c4.378 0 8.494 1.705 11.59 4.8a16.286 16.286 0 014.8 11.589c0 3.752-2.959 10.899-8.556 20.669-3.167 5.528-6.367 10.463-7.834 12.68z" fill="#fff"/><path d="M30.709 2c-4.11 0-7.975 1.601-10.882 4.507a15.293 15.293 0 00-4.507 10.882c0 1.315.442 3.898 2.546 8.736 1.412 3.243 3.387 7.087 5.872 11.425 2.647 4.62 5.318 8.827 6.971 11.366a241.207 241.207 0 006.972-11.366c2.485-4.338 4.46-8.182 5.872-11.425 2.104-4.838 2.546-7.421 2.546-8.736a15.29 15.29 0 00-4.508-10.882A15.29 15.29 0 0030.709 2m0-2c9.604 0 17.39 7.786 17.39 17.389 0 9.604-17.39 35.149-17.39 35.149S13.32 26.993 13.32 17.389C13.32 7.786 21.106 0 30.709 0z" fill="#ff8573"/></g><circle cx="30.709" cy="16.65" r="8.495" fill="#ff8573"/><circle cx="30.709" cy="16.65" r="6.77" fill="#fff"/><path fill="#ff8573" fill-rule="nonzero" d="M.37 58.698h42.919v2H.37z"/></g></svg>