<svg viewBox="0 0 67 69" xmlns="http://www.w3.org/2000/svg" fill-rule="evenodd" clip-rule="evenodd" stroke-linejoin="round" stroke-miterlimit="1.414"><path fill="none" d="M0 0h66.951v69H0z"/><clipPath id="a"><path d="M0 0h66.951v69H0z"/></clipPath><g clip-path="url(#a)"><path d="M12.476 47.529A12.481 12.481 0 01.185 37.205h24.582a12.481 12.481 0 01-12.291 10.324zM54.476 54.529a12.481 12.481 0 01-12.291-10.324h24.582a12.481 12.481 0 01-12.291 10.324z" fill="#ff8573" fill-rule="nonzero"/><path fill="#ff8573" d="M31.104 7.209h6.179v56.642h-6.179z"/><path fill="#fff" d="M32.872 8.209h2.592v54.642h-2.592z"/><path d="M4.5 1.5l60 10" fill="none" stroke="#ff8573" stroke-width="2"/><circle cx="34.194" cy="6.179" r="6.179" fill="#ff8573"/><circle cx="34.194" cy="5.993" r="4.493" fill="#fff"/><g fill-rule="nonzero"><path d="M12.476 18.858l12.475 16.347H0l12.476-16.347z" fill="#fff"/><path d="M12.476 22.155l-8.434 11.05h16.867l-8.433-11.05m0-3.297l12.475 16.347H0l12.476-16.347z" fill="#ff8573"/></g><g fill-rule="nonzero"><path d="M54.476 25.858l12.475 16.347H42l12.476-16.347z" fill="#fff"/><path d="M54.476 29.155l-8.434 11.05h16.867l-8.433-11.05m0-3.297l12.475 16.347H42l12.476-16.347z" fill="#ff8573"/></g><path d="M12.476 20.149L12.5 2.5M54.476 27.149L54.5 9.5" fill-rule="nonzero" stroke="#ff8573" stroke-width="2"/><g fill-rule="nonzero"><path d="M21.627 61.791h26.164C51.746 61.791 55 65.045 55 69H14.418c0-3.955 3.254-7.209 7.209-7.209z" fill="#ff8573"/><path d="M23.504 63.278h22.65c3.423 0 6.241 1.912 6.241 4.235H17.264c0-2.323 2.817-4.235 6.24-4.235z" fill="#fff"/></g></g></svg>